<svg width="29" height="37" viewBox="0 0 29 37" fill="none" xmlns="http://www.w3.org/2000/svg">
<path d="M10.2304 3.64725C6.52738 8.33178 2.395 15.1578 1.05332 18.727C-0.34203 22.43 -0.34203 26.8914 0.999651 29.3899C2.34133 31.8437 5.88337 34.6544 8.83507 35.5467C10.4988 36.082 12.3771 36.2605 15.3825 36.1713C19.0318 35.9928 19.9442 35.8143 22.3592 34.5205C24.0766 33.6282 25.8476 32.156 26.9209 30.7283C29.2286 27.6945 29.658 23.5007 27.9943 18.95C26.5989 15.2024 22.5202 8.42101 18.7098 3.64725C14.8458 -1.21574 14.0945 -1.21574 10.2304 3.64725ZM6.09804 23.9915C6.25904 24.393 6.42004 25.1069 6.42004 25.5976C6.42004 27.0699 8.35207 29.3006 10.4451 30.2375C12.3771 31.0852 13.0211 32.6467 11.5184 32.6467C8.08373 32.6467 3.73668 28.2745 3.73668 24.8392C3.73668 23.59 3.95135 23.2777 4.75636 23.2777C5.29303 23.2777 5.93704 23.59 6.09804 23.9915Z" fill="url(#paint0_linear_66_8)"/>
<defs>
<linearGradient id="paint0_linear_66_8" x1="14.5" y1="7.62939e-06" x2="14.5" y2="36.1932" gradientUnits="userSpaceOnUse">
<stop stop-color="#5797FF"/>
<stop offset="1" stop-color="#8AB7FF"/>
</linearGradient>
</defs>
</svg>
